<?xml version="1.0" encoding="utf-8"?>
<!-- Generator: Adobe Illustrator 24.1.2, SVG Export Plug-In . SVG Version: 6.00 Build 0)  -->
<svg version="1.1" xmlns="http://www.w3.org/2000/svg" xmlns:xlink="http://www.w3.org/1999/xlink" x="0px" y="0px"
	 viewBox="0 0 1606.2 904.7" style="enable-background:new 0 0 1606.2 904.7;" xml:space="preserve">
<style type="text/css">
	.st0{fill:#E8E8E8;}
	.st1{opacity:0.42;}
	.st2{clip-path:url(#SVGID_2_);}
	.st3{fill:#E5E5E5;}
	.st4{fill:#F2F2F2;}
	.st5{fill:#D8D8D8;}
	.st6{fill:url(#SVGID_3_);}
	.st7{fill:url(#SVGID_4_);}
	.st8{fill:url(#SVGID_5_);}
	.st9{fill:url(#SVGID_6_);}
	.st10{fill:url(#SVGID_7_);}
	.st11{fill:url(#SVGID_8_);}
	.st12{fill:url(#SVGID_9_);}
	.st13{fill:url(#SVGID_10_);}
	.st14{fill:url(#SVGID_11_);}
	.st15{fill:url(#SVGID_12_);}
	.st16{fill:url(#SVGID_13_);}
	.st17{fill:url(#SVGID_14_);}
	.st18{fill:url(#SVGID_15_);}
	.st19{fill:url(#SVGID_16_);}
	.st20{fill:url(#SVGID_17_);}
	.st21{fill:url(#SVGID_18_);}
	.st22{fill:url(#SVGID_19_);}
	.st23{fill:url(#SVGID_20_);}
	.st24{fill:url(#SVGID_21_);}
	.st25{fill:url(#SVGID_22_);}
	.st26{fill:url(#SVGID_23_);}
	.st27{fill:url(#SVGID_24_);}
	.st28{fill:url(#SVGID_25_);}
	.st29{fill:url(#SVGID_26_);}
	.st30{fill:url(#SVGID_27_);}
	.st31{fill:url(#SVGID_28_);}
	.st32{fill:url(#SVGID_29_);}
	.st33{fill:url(#SVGID_30_);}
	.st34{fill:url(#SVGID_31_);}
	.st35{fill:url(#SVGID_32_);}
</style>
<g id="Background">
	<rect x="-35.3" y="-19.9" class="st0" width="1679.1" height="944.5"/>
</g>
<g id="Object">
	<g class="st1">
		<defs>
			<rect id="SVGID_1_" x="-35.3" y="-19.9" class="st1" width="1679.1" height="944.5"/>
		</defs>
		<clipPath id="SVGID_2_">
			<use xlink:href="#SVGID_1_"  style="overflow:visible;"/>
		</clipPath>
		<g class="st2">
			<polygon class="st3" points="1670.4,967.9 1422.8,1063.3 1422.8,895.2 1670.4,799.7 			"/>
			<polygon class="st4" points="1422.8,1063.3 1175.1,1158.8 1175.1,990.6 1422.8,895.2 			"/>
			
				<radialGradient id="SVGID_3_" cx="502.567" cy="1343.1355" r="127.716" gradientTransform="matrix(1.5496 -0.5692 1.095399e-02 0.4038 618.8466 627.0959)" gradientUnits="userSpaceOnUse">
				<stop  offset="0" style="stop-color:#404040"/>
				<stop  offset="0.1862" style="stop-color:#6D6D6D"/>
				<stop  offset="0.469" style="stop-color:#ABABAB"/>
				<stop  offset="0.7089" style="stop-color:#D9D9D9"/>
				<stop  offset="0.8932" style="stop-color:#F5F5F5"/>
				<stop  offset="1" style="stop-color:#FFFFFF"/>
			</radialGradient>
			<path class="st6" d="M1624.3,830.3c-1.2,34.9-93.2,92-205.5,127.5c-112.3,35.6-202.4,36.1-201.2,1.3
				c1.2-34.9,93.2-92,205.5-127.5C1535.4,796,1625.5,795.5,1624.3,830.3z"/>
			<polygon class="st5" points="1422.8,895.2 1175.1,990.6 1175.1,822.4 1422.8,727 			"/>
			<polygon class="st3" points="1175.1,990.6 927.5,1086 927.5,917.9 1175.1,822.4 			"/>
			
				<radialGradient id="SVGID_4_" cx="345.5027" cy="1233.3818" r="127.716" gradientTransform="matrix(1.5496 -0.5692 1.095399e-02 0.4038 625.4648 503.1108)" gradientUnits="userSpaceOnUse">
				<stop  offset="0" style="stop-color:#404040"/>
				<stop  offset="0.1862" style="stop-color:#6D6D6D"/>
				<stop  offset="0.469" style="stop-color:#ABABAB"/>
				<stop  offset="0.7089" style="stop-color:#D9D9D9"/>
				<stop  offset="0.8932" style="stop-color:#F5F5F5"/>
				<stop  offset="1" style="stop-color:#FFFFFF"/>
			</radialGradient>
			<path class="st7" d="M1386.3,751.4c-1.2,34.9-93.2,92-205.5,127.5c-112.3,35.6-202.4,36.1-201.2,1.3
				c1.2-34.9,93.2-92,205.5-127.5C1297.4,717.1,1387.5,716.6,1386.3,751.4z"/>
			<polygon class="st4" points="679.9,1013.3 432.2,1108.7 432.2,940.6 679.9,845.1 			"/>
			<polygon class="st3" points="927.5,917.9 679.9,1013.3 679.9,845.1 927.5,749.7 			"/>
			
				<radialGradient id="SVGID_5_" cx="16.4713" cy="1134.7445" r="127.716" gradientTransform="matrix(1.5496 -0.5692 1.095399e-02 0.4038 631.4712 376.9114)" gradientUnits="userSpaceOnUse">
				<stop  offset="0" style="stop-color:#404040"/>
				<stop  offset="0.1862" style="stop-color:#6D6D6D"/>
				<stop  offset="0.469" style="stop-color:#ABABAB"/>
				<stop  offset="0.7089" style="stop-color:#D9D9D9"/>
				<stop  offset="0.8932" style="stop-color:#F5F5F5"/>
				<stop  offset="1" style="stop-color:#FFFFFF"/>
			</radialGradient>
			<path class="st8" d="M881.3,772.7c-1.2,34.9-93.2,92-205.5,127.5c-112.3,35.6-202.4,36.1-201.2,1.3c1.2-34.9,93.2-92,205.5-127.5
				C792.5,738.4,882.5,737.8,881.3,772.7z"/>
			<polygon class="st3" points="432.2,940.6 184.6,1036 184.6,867.8 432.2,772.4 			"/>
			<polygon class="st5" points="679.9,845.1 432.2,940.6 432.2,772.4 679.9,676.9 			"/>
			<polygon class="st3" points="1175.1,654.3 927.5,749.7 927.5,581.5 1175.1,486.1 			"/>
			<polygon class="st3" points="1670.4,631.6 1422.8,727 1422.8,558.8 1670.4,463.4 			"/>
			<polygon class="st4" points="1422.8,727 1175.1,822.4 1175.1,654.3 1422.8,558.8 			"/>
			
				<radialGradient id="SVGID_6_" cx="494.8966" cy="1100.1147" r="127.716" gradientTransform="matrix(1.5496 -0.5692 1.095399e-02 0.4038 633.3947 379.3055)" gradientUnits="userSpaceOnUse">
				<stop  offset="0" style="stop-color:#404040"/>
				<stop  offset="0.1862" style="stop-color:#6D6D6D"/>
				<stop  offset="0.469" style="stop-color:#ABABAB"/>
				<stop  offset="0.7089" style="stop-color:#D9D9D9"/>
				<stop  offset="0.8932" style="stop-color:#F5F5F5"/>
				<stop  offset="1" style="stop-color:#FFFFFF"/>
			</radialGradient>
			<path class="st9" d="M1624.3,488.8c-1.2,34.9-93.2,92-205.5,127.5c-112.3,35.6-202.4,36.1-201.2,1.3
				c1.2-34.9,93.2-92,205.5-127.5C1535.4,454.5,1625.5,453.9,1624.3,488.8z"/>
			<polygon class="st5" points="1422.8,558.8 1175.1,654.3 1175.1,486.1 1422.8,390.6 			"/>
			<polygon class="st4" points="1670.4,463.4 1422.8,558.8 1422.8,390.6 1670.4,295.2 			"/>
			<polygon class="st4" points="1670.4,799.7 1422.8,895.2 1422.8,727 1670.4,631.6 			"/>
			
				<radialGradient id="SVGID_7_" cx="337.957" cy="994.3128" r="127.716" gradientTransform="matrix(1.5496 -0.5692 1.095399e-02 0.4038 639.7764 259.3498)" gradientUnits="userSpaceOnUse">
				<stop  offset="0" style="stop-color:#404040"/>
				<stop  offset="0.1862" style="stop-color:#6D6D6D"/>
				<stop  offset="0.469" style="stop-color:#ABABAB"/>
				<stop  offset="0.7089" style="stop-color:#D9D9D9"/>
				<stop  offset="0.8932" style="stop-color:#F5F5F5"/>
				<stop  offset="1" style="stop-color:#FFFFFF"/>
			</radialGradient>
			<path class="st10" d="M1386.3,415.4c-1.2,34.9-93.2,92-205.5,127.5c-112.3,35.6-202.4,36.1-201.2,1.3
				c1.2-34.9,93.2-92,205.5-127.5C1297.4,381.1,1387.5,380.6,1386.3,415.4z"/>
			<polygon class="st3" points="1670.4,295.2 1422.8,390.6 1422.8,222.5 1670.4,127 			"/>
			<polygon class="st4" points="1422.8,390.6 1175.1,486.1 1175.1,317.9 1422.8,222.5 			"/>
			
				<radialGradient id="SVGID_8_" cx="487.3173" cy="859.9797" r="127.716" gradientTransform="matrix(1.5496 -0.5692 1.095399e-02 0.4038 647.7701 134.4575)" gradientUnits="userSpaceOnUse">
				<stop  offset="0" style="stop-color:#404040"/>
				<stop  offset="0.1862" style="stop-color:#6D6D6D"/>
				<stop  offset="0.469" style="stop-color:#ABABAB"/>
				<stop  offset="0.7089" style="stop-color:#D9D9D9"/>
				<stop  offset="0.8932" style="stop-color:#F5F5F5"/>
				<stop  offset="1" style="stop-color:#FFFFFF"/>
			</radialGradient>
			<path class="st11" d="M1624.3,151.3c-1.2,34.9-93.2,92-205.5,127.5c-112.3,35.6-202.4,36.1-201.2,1.3
				c1.2-34.9,93.2-92,205.5-127.5C1535.4,117,1625.5,116.4,1624.3,151.3z"/>
			<polygon class="st5" points="1422.8,222.5 1175.1,317.9 1175.1,149.7 1422.8,54.3 			"/>
			<polygon class="st4" points="1670.4,127 1422.8,222.5 1422.8,54.3 1670.4,-41.2 			"/>
			<polygon class="st3" points="1670.4,-41.2 1422.8,54.3 1422.8,-113.9 1670.4,-209.3 			"/>
			<polygon class="st4" points="927.5,749.7 679.9,845.1 679.9,676.9 927.5,581.5 			"/>
			
				<radialGradient id="SVGID_9_" cx="-140.3519" cy="1030.9163" r="127.716" gradientTransform="matrix(1.5496 -0.5692 1.095399e-02 0.4038 637.7347 258.9723)" gradientUnits="userSpaceOnUse">
				<stop  offset="0" style="stop-color:#404040"/>
				<stop  offset="0.1862" style="stop-color:#6D6D6D"/>
				<stop  offset="0.469" style="stop-color:#ABABAB"/>
				<stop  offset="0.7089" style="stop-color:#D9D9D9"/>
				<stop  offset="0.8932" style="stop-color:#F5F5F5"/>
				<stop  offset="1" style="stop-color:#FFFFFF"/>
			</radialGradient>
			<path class="st12" d="M643.4,702.1c-1.2,34.9-93.2,92-205.5,127.5c-112.3,35.6-202.4,36.1-201.2,1.3
				c1.2-34.9,93.2-92,205.5-127.5C554.6,667.8,644.6,667.2,643.4,702.1z"/>
			<polygon class="st5" points="432.2,772.4 184.6,867.8 184.6,699.6 432.2,604.2 			"/>
			<polygon class="st3" points="927.5,581.5 679.9,676.9 679.9,508.8 927.5,413.3 			"/>
			<polygon class="st4" points="679.9,677 432.2,772.4 432.2,604.2 679.9,508.8 			"/>
			<polygon class="st5" points="1175.1,486.1 927.5,581.5 927.5,413.3 1175.1,317.9 			"/>
			<polygon class="st5" points="1175.1,822.4 927.5,917.9 927.5,749.7 1175.1,654.3 			"/>
			
				<radialGradient id="SVGID_10_" cx="8.9538" cy="896.5669" r="127.7161" gradientTransform="matrix(1.5496 -0.5692 1.095399e-02 0.4038 645.7294 134.0592)" gradientUnits="userSpaceOnUse">
				<stop  offset="0" style="stop-color:#404040"/>
				<stop  offset="0.1862" style="stop-color:#6D6D6D"/>
				<stop  offset="0.469" style="stop-color:#ABABAB"/>
				<stop  offset="0.7089" style="stop-color:#D9D9D9"/>
				<stop  offset="0.8932" style="stop-color:#F5F5F5"/>
				<stop  offset="1" style="stop-color:#FFFFFF"/>
			</radialGradient>
			<path class="st13" d="M881.3,438c-1.2,34.9-93.2,92-205.5,127.5c-112.3,35.6-202.4,36.1-201.2,1.3c1.2-34.9,93.2-92,205.5-127.5
				C792.5,403.7,882.5,403.1,881.3,438z"/>
			<polygon class="st3" points="432.2,604.2 184.6,699.6 184.6,531.5 432.2,436 			"/>
			<polygon class="st5" points="679.9,508.8 432.2,604.2 432.2,436 679.9,340.6 			"/>
			<polygon class="st3" points="1175.1,317.9 927.5,413.3 927.5,245.2 1175.1,149.7 			"/>
			<polygon class="st4" points="927.5,413.3 679.9,508.8 679.9,340.6 927.5,245.2 			"/>
			
				<radialGradient id="SVGID_11_" cx="-153.0654" cy="789.0613" r="127.716" gradientTransform="matrix(1.5496 -0.5692 1.095399e-02 0.4038 652.2146 11.9712)" gradientUnits="userSpaceOnUse">
				<stop  offset="0" style="stop-color:#404040"/>
				<stop  offset="0.1862" style="stop-color:#6D6D6D"/>
				<stop  offset="0.469" style="stop-color:#ABABAB"/>
				<stop  offset="0.7089" style="stop-color:#D9D9D9"/>
				<stop  offset="0.8932" style="stop-color:#F5F5F5"/>
				<stop  offset="1" style="stop-color:#FFFFFF"/>
			</radialGradient>
			<path class="st14" d="M635.6,364.7c-1.2,34.9-93.2,92-205.5,127.5s-202.4,36.1-201.2,1.3s93.2-92,205.5-127.5
				C546.7,330.4,636.8,329.8,635.6,364.7z"/>
			<polygon class="st5" points="432.2,436 184.6,531.5 184.6,363.3 432.2,267.9 			"/>
			<polygon class="st3" points="927.5,245.2 679.9,340.6 679.9,172.4 927.5,77 			"/>
			<polygon class="st4" points="679.9,340.6 432.2,436 432.2,267.9 679.9,172.4 			"/>
			
				<radialGradient id="SVGID_12_" cx="1.5583" cy="662.2556" r="127.716" gradientTransform="matrix(1.5496 -0.5692 1.095399e-02 0.4038 659.7562 -104.8507)" gradientUnits="userSpaceOnUse">
				<stop  offset="0" style="stop-color:#404040"/>
				<stop  offset="0.1862" style="stop-color:#6D6D6D"/>
				<stop  offset="0.469" style="stop-color:#ABABAB"/>
				<stop  offset="0.7089" style="stop-color:#D9D9D9"/>
				<stop  offset="0.8932" style="stop-color:#F5F5F5"/>
				<stop  offset="1" style="stop-color:#FFFFFF"/>
			</radialGradient>
			<path class="st15" d="M881.3,108.7c-1.2,34.9-93.2,92-205.5,127.5c-112.3,35.6-202.4,36.1-201.2,1.3
				c1.2-34.9,93.2-92,205.5-127.5C792.5,74.3,882.5,73.8,881.3,108.7z"/>
			<polygon class="st3" points="432.2,267.9 184.6,363.3 184.6,195.1 432.2,99.7 			"/>
			<polygon class="st5" points="679.9,172.4 432.2,267.9 432.2,99.7 679.9,4.3 			"/>
			<polygon class="st3" points="1175.1,-18.5 927.5,77 927.5,-91.2 1175.1,-186.6 			"/>
			<polygon class="st4" points="927.5,77 679.9,172.4 679.9,4.2 927.5,-91.2 			"/>
			
				<radialGradient id="SVGID_13_" cx="-155.4648" cy="552.093" r="127.716" gradientTransform="matrix(1.5496 -0.5692 1.095399e-02 0.4038 666.3989 -229.2485)" gradientUnits="userSpaceOnUse">
				<stop  offset="0" style="stop-color:#404040"/>
				<stop  offset="0.1862" style="stop-color:#6D6D6D"/>
				<stop  offset="0.469" style="stop-color:#ABABAB"/>
				<stop  offset="0.7089" style="stop-color:#D9D9D9"/>
				<stop  offset="0.8932" style="stop-color:#F5F5F5"/>
				<stop  offset="1" style="stop-color:#FFFFFF"/>
			</radialGradient>
			<path class="st16" d="M643.4,29.2c-1.2,34.9-93.2,92-205.5,127.5c-112.3,35.6-202.4,36.1-201.2,1.3c1.2-34.9,93.2-92,205.5-127.5
				C554.6-5.1,644.6-5.7,643.4,29.2z"/>
			<polygon class="st5" points="432.2,99.7 184.6,195.1 184.6,27 432.2,-68.5 			"/>
			<polygon class="st3" points="927.5,-91.2 679.9,4.2 679.9,-163.9 927.5,-259.4 			"/>
			<polygon class="st4" points="679.9,4.3 432.2,99.7 432.2,-68.5 679.9,-163.9 			"/>
			<polygon class="st3" points="432.2,-68.5 184.6,27 184.6,-141.2 432.2,-236.7 			"/>
			<polygon class="st3" points="184.6,867.8 -63.1,963.3 -63.1,795.1 184.6,699.6 			"/>
			
				<radialGradient id="SVGID_14_" cx="-472.4359" cy="938.5762" r="127.716" gradientTransform="matrix(1.5496 -0.5692 1.095399e-02 0.4038 643.3652 138.938)" gradientUnits="userSpaceOnUse">
				<stop  offset="0" style="stop-color:#404040"/>
				<stop  offset="0.1862" style="stop-color:#6D6D6D"/>
				<stop  offset="0.469" style="stop-color:#ABABAB"/>
				<stop  offset="0.7089" style="stop-color:#D9D9D9"/>
				<stop  offset="0.8932" style="stop-color:#F5F5F5"/>
				<stop  offset="1" style="stop-color:#FFFFFF"/>
			</radialGradient>
			<path class="st17" d="M133.5,733.8c-1.2,34.9-93.2,92-205.5,127.5c-112.3,35.6-202.4,36.1-201.2,1.3
				c1.2-34.9,93.2-92,205.5-127.5C44.6,699.5,134.7,698.9,133.5,733.8z"/>
			<polygon class="st4" points="184.6,699.6 -63.1,795.1 -63.1,626.9 184.6,531.5 			"/>
			<polygon class="st3" points="184.6,531.5 -63.1,626.9 -63.1,458.7 184.6,363.3 			"/>
			
				<radialGradient id="SVGID_15_" cx="-479.995" cy="699.0804" r="127.716" gradientTransform="matrix(1.5496 -0.5692 1.095399e-02 0.4038 657.7023 -105.2582)" gradientUnits="userSpaceOnUse">
				<stop  offset="0" style="stop-color:#404040"/>
				<stop  offset="0.1862" style="stop-color:#6D6D6D"/>
				<stop  offset="0.469" style="stop-color:#ABABAB"/>
				<stop  offset="0.7089" style="stop-color:#D9D9D9"/>
				<stop  offset="0.8932" style="stop-color:#F5F5F5"/>
				<stop  offset="1" style="stop-color:#FFFFFF"/>
			</radialGradient>
			<path class="st18" d="M133.5,397.2c-1.2,34.9-93.2,92-205.5,127.5c-112.3,35.6-202.4,36.1-201.2,1.3s93.2-92,205.5-127.5
				C44.6,362.9,134.7,362.4,133.5,397.2z"/>
			<polygon class="st4" points="184.6,1036 -63.1,1131.4 -63.1,963.3 184.6,867.8 			"/>
			<polygon class="st4" points="184.6,363.3 -63.1,458.7 -63.1,290.6 184.6,195.1 			"/>
			<polygon class="st3" points="184.6,195.1 -63.1,290.6 -63.1,122.4 184.6,26.9 			"/>
			
				<radialGradient id="SVGID_16_" cx="-487.7125" cy="454.5685" r="127.716" gradientTransform="matrix(1.5496 -0.5692 1.095399e-02 0.4038 672.3397 -354.5689)" gradientUnits="userSpaceOnUse">
				<stop  offset="0" style="stop-color:#404040"/>
				<stop  offset="0.1862" style="stop-color:#6D6D6D"/>
				<stop  offset="0.469" style="stop-color:#ABABAB"/>
				<stop  offset="0.7089" style="stop-color:#D9D9D9"/>
				<stop  offset="0.8932" style="stop-color:#F5F5F5"/>
				<stop  offset="1" style="stop-color:#FFFFFF"/>
			</radialGradient>
			<path class="st19" d="M133.5,53.6c-1.2,34.9-93.2,92-205.5,127.5c-112.3,35.6-202.4,36.1-201.2,1.3c1.2-34.9,93.2-92,205.5-127.5
				S134.7,18.7,133.5,53.6z"/>
			<polygon class="st4" points="184.6,27 -63.1,122.4 -63.1,-45.8 184.6,-141.2 			"/>
			
				<radialGradient id="SVGID_17_" cx="325.2435" cy="752.4578" r="127.716" gradientTransform="matrix(1.5496 -0.5692 1.095399e-02 0.4038 654.2563 12.3487)" gradientUnits="userSpaceOnUse">
				<stop  offset="0" style="stop-color:#404040"/>
				<stop  offset="0.1862" style="stop-color:#6D6D6D"/>
				<stop  offset="0.469" style="stop-color:#ABABAB"/>
				<stop  offset="0.7089" style="stop-color:#D9D9D9"/>
				<stop  offset="0.8932" style="stop-color:#F5F5F5"/>
				<stop  offset="1" style="stop-color:#FFFFFF"/>
			</radialGradient>
			<path class="st20" d="M1378.4,78c-1.2,34.9-93.2,92-205.5,127.5c-112.3,35.6-202.4,36.1-201.2,1.3c1.2-34.9,93.2-92,205.5-127.5
				C1289.5,43.7,1379.6,43.2,1378.4,78z"/>
			<polygon class="st4" points="1422.8,54.3 1175.1,149.7 1175.1,-18.5 1422.8,-113.9 			"/>
			<polygon class="st5" points="1175.1,149.7 927.5,245.2 927.5,77 1175.1,-18.5 			"/>
		</g>
	</g>
	
		<linearGradient id="SVGID_18_" gradientUnits="userSpaceOnUse" x1="325.103" y1="-485.4582" x2="1244.8461" y2="1314.8979" gradientTransform="matrix(-1 0 0 1 1608.4137 0)">
		<stop  offset="0.2563" style="stop-color:#E8E8E8"/>
		<stop  offset="0.5344" style="stop-color:#E8E8E8;stop-opacity:0"/>
		<stop  offset="0.7923" style="stop-color:#E8E8E8"/>
	</linearGradient>
	<polygon class="st21" points="1643.7,-19.9 -35.3,-19.9 -35.3,924.6 1643.7,924.6 	"/>
	
		<linearGradient id="SVGID_19_" gradientUnits="userSpaceOnUse" x1="326.541" y1="-484.857" x2="1245.6943" y2="1314.3451" gradientTransform="matrix(-1 0 0 1 1608.4137 0)">
		<stop  offset="0.2599" style="stop-color:#FFFFFF"/>
		<stop  offset="0.5344" style="stop-color:#FFFFFF;stop-opacity:0"/>
		<stop  offset="0.7929" style="stop-color:#FFFFFF"/>
	</linearGradient>
	<polygon class="st22" points="1641.5,-19.9 -35.3,-19.9 -35.3,924.6 1641.5,924.6 	"/>
</g>
</svg>
