<svg xmlns="http://www.w3.org/2000/svg" xmlns:xlink="http://www.w3.org/1999/xlink" viewBox="0 0 237.29 142.3"><defs><style>.cls-1{fill:none;}.cls-18,.cls-19,.cls-2,.cls-7{fill:#fff;}.cls-3{isolation:isolate;}.cls-4,.cls-5{fill:#bde9fc;}.cls-4,.cls-6{opacity:0.2;mix-blend-mode:multiply;}.cls-7{opacity:0.5;}.cls-8{fill:#7acfd0;}.cls-9{fill:#99d6f8;}.cls-10{fill:#23455e;}.cls-11{fill:#fff8f0;}.cls-12{fill:#3b698c;}.cls-13{fill:#cfdee6;}.cls-14{fill:#195c6c;}.cls-15{fill:#e9af46;}.cls-16{fill:#64a8a9;}.cls-17{fill:#f4f8fa;}.cls-18{font-size:32.36px;font-family:OpenSans-ExtraBold, Open Sans;font-weight:800;}.cls-19{font-size:9.12px;font-family:OpenSans, Open Sans;}.cls-20{fill:#f1caa2;}.cls-21{fill:#e39679;}.cls-22{fill:#423f63;}.cls-23{fill:#fffaf0;}.cls-24{fill:#365982;}.cls-25{fill:#db774a;}.cls-26{clip-path:url(#clip-path);}.cls-27{fill:#e6e6e6;}.cls-28{clip-path:url(#clip-path-2);}.cls-29{clip-path:url(#clip-path-3);}.cls-30{clip-path:url(#clip-path-4);}</style><clipPath id="clip-path"><polygon class="cls-1" points="101.22 117.62 100.83 117.62 99.56 117.62 99.17 117.62 94.18 135.15 99.56 135.15 100.83 135.15 106.21 135.15 101.22 117.62"/></clipPath><clipPath id="clip-path-2"><polygon class="cls-1" points="126.29 135.71 126.41 136.08 126.8 137.29 126.92 137.66 145.13 137.09 143.49 131.97 143.11 130.75 141.47 125.63 126.29 135.71"/></clipPath><clipPath id="clip-path-3"><rect class="cls-2" x="36" y="120.31" width="27.99" height="8.89"/></clipPath><clipPath id="clip-path-4"><rect class="cls-2" x="166.41" y="120.31" width="27.99" height="8.89"/></clipPath></defs><g class="cls-3"><g id="OBJECTS"><path class="cls-4" d="M14.28,111.06C11,96.24,26.53,84.71,26.79,67.46S10.06,24.91,43.59,7.88,110.82,30.17,140.05,30s33.48,22.62,60.78,27.78,38.56,39.38,20,58.07S14.28,111.06,14.28,111.06Z"/><path class="cls-5" d="M115,132.16c-12.33,0-81.19,1.42-95.71-3s-18.71-32,4-44.69S21.1,40.93,33.71,25.16,62.66,2.89,98.53,19.4s52.74-7.24,67.75,3.39,4.89,34.57,26.09,38.7c46.6,9.09,40.76,70.16,14,69.64C165.28,130.35,115,132.16,115,132.16Z"/><g class="cls-6"><path class="cls-5" d="M31.45,91.26c22.71-12.64-2.2-43.57,10.42-59.35s28.95-22.27,64.82-5.76c33.26,15.31,50.18-4,64.43,1.6a19.26,19.26,0,0,0-4.84-5c-15-10.63-31.88,13.12-67.75-3.39s-52.2-10-64.82,5.76S46,71.86,23.29,84.51C.81,97,4.68,124.26,18.85,129.06,12.49,118.86,14.33,100.79,31.45,91.26Z"/></g><path class="cls-7" d="M182.07,69H166.41s-.44-.5,1.2-.84,2.3,1,3.82-2.28a3.31,3.31,0,0,1,3.71-1.73c1.46.3,2.12,3,3.13,2.58s.45-2.42,2.73-2.58,1.94,2.39,2.71,3.12,1-1,1.86-.64.61,1.42,1.4,1.42a7,7,0,0,1,2.91.68C190.41,69.14,182.07,69,182.07,69Z"/><path class="cls-7" d="M42.5,74.24H26.84s-.44-.5,1.2-.85,2.31,1,3.82-2.27a3.3,3.3,0,0,1,3.71-1.73c1.47.29,2.13,3,3.14,2.58s.45-2.42,2.73-2.59,1.94,2.39,2.7,3.12,1-1,1.86-.64.61,1.43,1.4,1.43a7.16,7.16,0,0,1,2.91.67C50.84,74.34,42.5,74.24,42.5,74.24Z"/><path class="cls-7" d="M130.23,35.59H114.57s-.44-.5,1.2-.84,2.3,1,3.82-2.28a3.31,3.31,0,0,1,3.71-1.73c1.46.29,2.13,3,3.13,2.58s.46-2.42,2.74-2.59,1.93,2.39,2.7,3.12,1-1,1.86-.64.61,1.43,1.4,1.43a7,7,0,0,1,2.91.68C138.57,35.69,130.23,35.59,130.23,35.59Z"/><path class="cls-8" d="M165.65,119.2s5.53-1.7,5.06-6.71-4-5.19-1.3-8.11,5.59-1.5,6.42-7.66-6.32-9.8-4.31-13.21c2.33-4,3.9-4.78,2.57-10.91-2.55-11.76-22.1-5-22.1-5Z"/><path class="cls-9" d="M31.51,133.67S47.58,42.8,100,48.26c33.91,3.54,37.7,54.62,50,51C175.18,91.8,192,84.62,204.4,133.67Z"/><path class="cls-10" d="M183.63,85.62s-3.57.76-2.79,5.62c.66,4.13-2.25,2.07-3.71,8.36-1.81,7.73,3.93,7.37,1.64,10.12C175.2,114,171.12,125.3,183,126.6c11,1.2,13-6.09,11.42-10.77s-5.8-6.44-3.92-9.25c1.66-2.47,3-7-.09-10.21s-2.9-1.76-3.29-5.9S185.65,85.09,183.63,85.62Z"/><path class="cls-11" d="M184.8,126.83a.12.12,0,0,1-.12-.12l-.53-36.24a.12.12,0,0,1,.12-.12q.12,0,.12.12l.53,36.24a.12.12,0,0,1-.12.12Z"/><path class="cls-11" d="M184.42,102.33h0c-.08,0-.27,0-3.29-4.76a.12.12,0,0,1,0-.17.12.12,0,0,1,.17,0c1,1.6,2.67,4.13,3.07,4.59a38.68,38.68,0,0,0,2.47-5.19.12.12,0,0,1,.16-.06.11.11,0,0,1,.07.16,37.22,37.22,0,0,1-2.58,5.34A.14.14,0,0,1,184.42,102.33Z"/><path class="cls-11" d="M184.54,110.57l-.06,0c-.17-.09-1.92-3.14-3.35-5.68a.12.12,0,0,1,0-.17.13.13,0,0,1,.17,0c1.12,2,2.79,4.89,3.19,5.49.35-.65,1.59-4,2.35-6.08a.12.12,0,0,1,.16-.08.12.12,0,0,1,.07.16c-1.48,4.12-2.33,6.24-2.52,6.32Z"/><path class="cls-11" d="M184.7,119.8h-.07c-.17-.09-1.91-3.14-3.35-5.68a.13.13,0,0,1,.05-.17.13.13,0,0,1,.17,0c1.11,2,2.78,4.89,3.19,5.49.34-.65,1.59-4,2.35-6.09a.12.12,0,0,1,.15-.07.12.12,0,0,1,.08.16c-1.49,4.12-2.34,6.24-2.53,6.32Z"/><path class="cls-12" d="M195.12,91s-3.57.75-2.79,5.61c.66,4.14-2.25,2.08-3.72,8.36-1.8,7.73,3.94,7.38,1.65,10.12-3.57,4.29-7.65,15.59,4.22,16.88,11,1.2,13-6.09,11.42-10.76s-5.8-6.45-3.92-9.25c1.66-2.47,3-7-.09-10.21s-2.9-1.77-3.29-5.9S197.14,90.41,195.12,91Z"/><path class="cls-11" d="M196.29,132.16a.12.12,0,0,1-.12-.13l-.53-36.23a.13.13,0,0,1,.12-.13h0a.12.12,0,0,1,.12.13l.53,36.23a.13.13,0,0,1-.12.13Z"/><path class="cls-11" d="M195.91,107.65h0c-.08,0-.28,0-3.29-4.76a.12.12,0,0,1,0-.17.13.13,0,0,1,.17,0c1,1.6,2.66,4.14,3.07,4.59a38.13,38.13,0,0,0,2.47-5.18.14.14,0,0,1,.16-.07.12.12,0,0,1,.07.16A36.71,36.71,0,0,1,196,107.6.14.14,0,0,1,195.91,107.65Z"/><path class="cls-11" d="M196,115.89H196c-.17-.09-1.92-3.14-3.35-5.68a.12.12,0,0,1,.21-.13c1.11,2,2.79,4.9,3.19,5.5.35-.65,1.59-4,2.35-6.09a.12.12,0,0,1,.16-.07.11.11,0,0,1,.07.15c-1.48,4.12-2.33,6.25-2.52,6.32Z"/><path class="cls-11" d="M196.18,125.13l-.06,0c-.17-.09-1.91-3.13-3.35-5.68a.12.12,0,0,1,0-.16.11.11,0,0,1,.16,0c1.12,2,2.79,4.9,3.2,5.5.34-.65,1.59-4,2.35-6.09a.12.12,0,0,1,.15-.08.13.13,0,0,1,.08.16c-1.49,4.12-2.34,6.25-2.53,6.32Z"/><rect class="cls-13" x="67.3" y="137.39" width="19.55" height="1.3" rx="0.65"/><rect class="cls-13" x="34.71" y="137.39" width="30.57" height="1.3" rx="0.65"/><rect class="cls-13" x="89.52" y="137.39" width="19.55" height="1.3" rx="0.65"/><rect class="cls-13" x="52.46" y="133.79" width="113.95" height="1.3" rx="0.65"/><rect class="cls-13" x="124.17" y="137.39" width="53.96" height="1.3" rx="0.65"/><rect class="cls-10" x="41.49" y="28.07" width="18.48" height="0.7" transform="translate(-5.83 41.92) rotate(-42.68)"/><rect class="cls-10" x="73.05" y="11.35" width="0.7" height="34.13" transform="translate(20.02 86.25) rotate(-68.46)"/><rect class="cls-10" x="54.24" y="84.24" width="6.57" height="0.7"/><rect class="cls-10" x="52.67" y="87.81" width="9.69" height="0.7" transform="translate(-46.27 70.65) rotate(-47.3)"/><rect class="cls-10" x="57.17" y="83.31" width="0.7" height="9.69" transform="translate(-44.53 62.35) rotate(-42.69)"/><rect class="cls-10" x="54.24" y="77.12" width="6.57" height="0.7"/><rect class="cls-10" x="52.67" y="80.68" width="9.69" height="0.7" transform="translate(-41.04 68.36) rotate(-47.3)"/><rect class="cls-10" x="57.17" y="76.18" width="0.7" height="9.69" transform="translate(-39.7 60.47) rotate(-42.69)"/><rect class="cls-10" x="54.24" y="69.99" width="6.57" height="0.7"/><rect class="cls-10" x="52.67" y="73.56" width="9.69" height="0.7" transform="translate(-35.8 66.08) rotate(-47.32)"/><rect class="cls-10" x="57.17" y="69.06" width="0.7" height="9.69" transform="translate(-34.87 58.58) rotate(-42.69)"/><rect class="cls-10" x="54.24" y="62.87" width="6.57" height="0.7"/><rect class="cls-10" x="52.67" y="66.43" width="9.69" height="0.7" transform="translate(-30.56 63.79) rotate(-47.32)"/><rect class="cls-10" x="57.17" y="61.93" width="0.7" height="9.69" transform="translate(-30.04 56.69) rotate(-42.69)"/><rect class="cls-10" x="54.24" y="55.15" width="6.57" height="0.7"/><rect class="cls-10" x="52.67" y="58.72" width="9.69" height="0.7" transform="translate(-24.89 61.3) rotate(-47.32)"/><rect class="cls-10" x="57.17" y="54.22" width="0.7" height="9.69" transform="translate(-24.81 54.65) rotate(-42.69)"/><rect class="cls-10" x="54.24" y="48.03" width="6.57" height="0.7"/><rect class="cls-10" x="52.67" y="51.59" width="9.69" height="0.7" transform="translate(-19.66 59.01) rotate(-47.32)"/><rect class="cls-10" x="57.17" y="47.09" width="0.7" height="9.69" transform="translate(-19.98 52.76) rotate(-42.69)"/><rect class="cls-10" x="54.24" y="27.21" width="6.57" height="0.7"/><rect class="cls-10" x="52.67" y="30.77" width="9.69" height="0.7" transform="translate(-4.35 52.3) rotate(-47.32)"/><rect class="cls-10" x="57.17" y="26.27" width="0.7" height="9.69" transform="translate(-5.86 47.24) rotate(-42.69)"/><rect class="cls-14" x="54.24" y="40.9" width="6.57" height="0.7"/><rect class="cls-10" x="52.67" y="44.47" width="9.69" height="0.7" transform="translate(-14.42 56.71) rotate(-47.32)"/><rect class="cls-10" x="57.17" y="39.97" width="0.7" height="9.69" transform="translate(-15.14 50.87) rotate(-42.69)"/><rect class="cls-10" x="67.58" y="34.68" width="0.7" height="6.57"/><rect class="cls-10" x="64.02" y="33.12" width="0.7" height="9.69" transform="translate(-7.18 59.54) rotate(-47.31)"/><rect class="cls-10" x="59.52" y="37.62" width="9.69" height="0.7" transform="translate(-8.69 53.7) rotate(-42.68)"/><rect class="cls-10" x="45.79" y="34.68" width="0.7" height="6.57"/><rect class="cls-10" x="49.36" y="33.12" width="0.7" height="9.69" transform="translate(-11.9 48.76) rotate(-47.31)"/><rect class="cls-10" x="44.86" y="37.62" width="9.69" height="0.7" transform="translate(-12.57 43.76) rotate(-42.68)"/><rect class="cls-10" x="74.69" y="34.68" width="0.7" height="6.57"/><rect class="cls-10" x="71.13" y="33.12" width="0.7" height="9.69" transform="translate(-4.89 64.76) rotate(-47.31)"/><rect class="cls-10" x="66.63" y="37.62" width="9.69" height="0.7" transform="translate(-6.81 58.51) rotate(-42.68)"/><rect class="cls-10" x="81.81" y="34.68" width="0.7" height="6.57"/><rect class="cls-10" x="78.25" y="33.12" width="0.7" height="9.69" transform="translate(-2.6 70) rotate(-47.31)"/><rect class="cls-10" x="73.75" y="37.62" width="9.69" height="0.7" transform="translate(-4.92 63.34) rotate(-42.68)"/><rect class="cls-10" x="88.92" y="34.68" width="0.7" height="6.57"/><rect class="cls-10" x="85.35" y="33.12" width="0.7" height="9.69" transform="translate(-0.31 75.22) rotate(-47.31)"/><rect class="cls-10" x="80.86" y="37.62" width="9.69" height="0.7" transform="translate(-3.04 68.16) rotate(-42.68)"/><rect class="cls-10" x="96.04" y="34.68" width="0.7" height="6.57"/><rect class="cls-10" x="92.48" y="33.12" width="0.7" height="9.69" transform="translate(1.98 80.46) rotate(-47.31)"/><rect class="cls-10" x="87.98" y="37.62" width="9.69" height="0.7" transform="translate(-1.14 73.01) rotate(-42.7)"/><rect class="cls-10" x="103.15" y="34.68" width="0.7" height="6.57"/><rect class="cls-10" x="99.58" y="33.12" width="0.7" height="9.69" transform="matrix(0.68, -0.74, 0.74, 0.68, 4.27, 85.68)"/><rect class="cls-10" x="95.08" y="37.62" width="9.69" height="0.7" transform="translate(0.74 77.82) rotate(-42.7)"/><path class="cls-12" d="M60.81,92.07H54.24a.35.35,0,0,1-.35-.35V27.24a.38.38,0,0,1,0-.19L57.23,22a.34.34,0,0,1,.58,0l3.29,5.09a.3.3,0,0,1,0,.19V91.72A.35.35,0,0,1,60.81,92.07Zm-6.23-.7h5.88v-64l-2.94-4.55-2.94,4.55Z"/><path class="cls-12" d="M111.86,41.6H47a.35.35,0,0,1-.35-.35V34.68a.35.35,0,0,1,.35-.35h56.41a.4.4,0,0,1,.21.07L112.07,41a.33.33,0,0,1,.12.38A.35.35,0,0,1,111.86,41.6Zm-64.51-.7h63.5L103.3,35H47.35Z"/><rect class="cls-10" x="52.6" y="33.04" width="9.85" height="9.85"/><rect class="cls-10" x="43.94" y="34.68" width="3.07" height="6.57"/><path class="cls-10" d="M47.35,41.6H43.59V34.33h3.76Zm-3.06-.7h2.37V35H44.29Z"/><rect class="cls-10" x="51.27" y="95.22" width="12.5" height="7.74"/><polygon class="cls-10" points="57.52 91.95 53.99 91.95 51.27 95.22 57.52 95.22 57.52 91.95"/><polygon class="cls-12" points="57.44 91.95 60.97 91.95 63.69 95.22 57.44 95.22 57.44 91.95"/><rect class="cls-12" x="51.27" y="97.01" width="12.5" height="0.81"/><rect class="cls-12" x="51.27" y="99.62" width="12.5" height="0.81"/><path class="cls-8" d="M99.06,83.38s-9.15-3.85-19.31,3.71c-9.1,6.79-3.56,18.35-13.66,13.13-8.38-4.32-19.44-.73-19.39,8.11s-10.65,1.31-15.19,10.27H99.06Z"/><path class="cls-8" d="M134.63,41s-6.81-3.09-14.36,3c-6.78,5.44-2.66,14.71-10.17,10.53C103.86,51,95.64,53.88,95.67,61S87.75,62,84.36,69.21h50.27Z"/><path class="cls-12" d="M47.75,82.87s-3.57.75-2.79,5.62c.66,4.13-2.25,2.07-3.72,8.36-1.8,7.72,3.94,7.37,1.65,10.12-3.57,4.28-7.65,15.58,4.22,16.88,11,1.19,13-6.1,11.42-10.77s-5.8-6.45-3.92-9.25c1.66-2.47,3-7-.09-10.21s-2.9-1.76-3.29-5.9S49.77,82.34,47.75,82.87Z"/><path class="cls-11" d="M48.92,124.08a.14.14,0,0,1-.13-.12l-.52-36.24a.12.12,0,0,1,.24,0L49,124a.12.12,0,0,1-.12.13Z"/><path class="cls-11" d="M48.54,99.58h0c-.08,0-.28,0-3.29-4.76a.12.12,0,0,1,0-.17.13.13,0,0,1,.17,0c1,1.61,2.66,4.14,3.07,4.6A38.68,38.68,0,0,0,51,94.09a.14.14,0,0,1,.16-.07.12.12,0,0,1,.07.16,36.71,36.71,0,0,1-2.58,5.34A.14.14,0,0,1,48.54,99.58Z"/><path class="cls-11" d="M48.66,107.81H48.6c-.17-.09-1.92-3.14-3.36-5.68a.13.13,0,1,1,.22-.12c1.11,2,2.79,4.89,3.19,5.49.35-.65,1.59-4,2.35-6.09a.12.12,0,1,1,.23.09c-1.49,4.12-2.34,6.24-2.52,6.32Z"/><path class="cls-11" d="M48.81,117.05h-.06c-.17-.09-1.92-3.14-3.35-5.68a.13.13,0,0,1,.05-.17.11.11,0,0,1,.16,0c1.12,2,2.79,4.9,3.2,5.5.34-.65,1.58-4,2.35-6.09a.11.11,0,0,1,.15-.07.12.12,0,0,1,.08.15c-1.49,4.12-2.34,6.25-2.53,6.32Z"/><path class="cls-15" d="M137.2,28.41s-3.58.75-2.8,5.61c.67,4.14-2.24,2.08-3.71,8.36-1.8,7.73,3.94,7.38,1.65,10.12-3.57,4.29-7.65,15.59,4.22,16.88,11,1.2,13-6.09,11.42-10.77s-5.8-6.44-3.92-9.24c1.66-2.47,3-7-.09-10.21s-2.9-1.77-3.29-5.9S139.22,27.87,137.2,28.41Z"/><path class="cls-11" d="M138.37,69.61a.12.12,0,0,1-.13-.12l-.52-36.23a.12.12,0,0,1,.12-.13.12.12,0,0,1,.12.12l.53,36.24a.12.12,0,0,1-.12.12Z"/><path class="cls-11" d="M138,45.11h0c-.08,0-.28,0-3.29-4.76a.12.12,0,1,1,.2-.13c1,1.6,2.67,4.13,3.07,4.59a40.45,40.45,0,0,0,2.48-5.18.13.13,0,0,1,.16-.07.13.13,0,0,1,.07.16,36.71,36.71,0,0,1-2.58,5.34A.16.16,0,0,1,138,45.11Z"/><path class="cls-11" d="M138.11,53.35H138c-.17-.1-1.91-3.14-3.35-5.69a.12.12,0,0,1,.05-.16.12.12,0,0,1,.17,0c1.11,2,2.78,4.9,3.19,5.5.34-.65,1.59-4,2.35-6.09a.12.12,0,0,1,.23.08c-1.49,4.12-2.34,6.25-2.52,6.32Z"/><path class="cls-11" d="M138.26,62.59l-.06,0c-.17-.09-1.92-3.14-3.35-5.68a.13.13,0,0,1,.05-.17.12.12,0,0,1,.16.05c1.12,2,2.79,4.9,3.2,5.5.34-.65,1.58-4,2.34-6.09a.13.13,0,0,1,.24.08c-1.49,4.12-2.34,6.25-2.53,6.32Z"/><path class="cls-10" d="M36.23,90s-3.57.75-2.79,5.61c.66,4.14-2.25,2.08-3.71,8.36-1.8,7.73,3.93,7.38,1.65,10.12-3.58,4.29-7.65,15.59,4.21,16.88,11,1.2,13-6.09,11.42-10.77s-5.8-6.44-3.92-9.24c1.66-2.47,3-7-.08-10.21s-2.9-1.77-3.3-5.9S38.26,89.49,36.23,90Z"/><path class="cls-11" d="M37.4,131.23a.12.12,0,0,1-.12-.12l-.53-36.23a.13.13,0,0,1,.12-.13.13.13,0,0,1,.13.13l.52,36.23a.11.11,0,0,1-.12.12Z"/><path class="cls-11" d="M37,106.73h0c-.07,0-.27,0-3.29-4.76a.13.13,0,0,1,0-.17.13.13,0,0,1,.17,0c1,1.6,2.67,4.14,3.07,4.59a39.81,39.81,0,0,0,2.48-5.18.12.12,0,0,1,.16-.07.12.12,0,0,1,.06.16,34.71,34.71,0,0,1-2.58,5.34A.14.14,0,0,1,37,106.73Z"/><path class="cls-11" d="M37.14,115h-.06c-.17-.09-1.92-3.14-3.35-5.68a.13.13,0,0,1,.05-.17.11.11,0,0,1,.16,0c1.12,2,2.79,4.9,3.2,5.5.34-.65,1.58-4,2.34-6.09a.13.13,0,0,1,.16-.07.12.12,0,0,1,.08.15c-1.49,4.12-2.34,6.25-2.53,6.32Z"/><path class="cls-11" d="M37.3,124.21l-.07,0c-.17-.09-1.91-3.14-3.35-5.68a.12.12,0,0,1,0-.16.12.12,0,0,1,.17,0c1.11,2,2.79,4.9,3.19,5.5.35-.65,1.59-4,2.35-6.09a.12.12,0,0,1,.16-.08.14.14,0,0,1,.07.16c-1.49,4.12-2.34,6.25-2.52,6.32Z"/><path class="cls-10" d="M151.19,36.12s-3.57.75-2.79,5.62c.66,4.13-2.24,2.07-3.71,8.36-1.8,7.72,3.94,7.37,1.65,10.12-3.57,4.28-7.65,15.58,4.21,16.87,11,1.2,13-6.09,11.43-10.76s-5.81-6.45-3.92-9.25c1.65-2.47,3-7-.09-10.21s-2.9-1.76-3.29-5.9S153.22,35.59,151.19,36.12Z"/><path class="cls-11" d="M152.36,77.33a.13.13,0,0,1-.12-.12L151.71,41a.12.12,0,0,1,.12-.12A.12.12,0,0,1,152,41l.53,36.23a.13.13,0,0,1-.12.13Z"/><path class="cls-11" d="M152,52.82h0c-.07,0-.27,0-3.29-4.76a.13.13,0,0,1,0-.17.13.13,0,0,1,.17,0c1,1.6,2.67,4.14,3.07,4.6a40.41,40.41,0,0,0,2.48-5.19.13.13,0,0,1,.16-.07.14.14,0,0,1,.07.16,36,36,0,0,1-2.59,5.34A.12.12,0,0,1,152,52.82Z"/><path class="cls-11" d="M152.11,61.06H152c-.17-.09-1.91-3.14-3.35-5.68a.13.13,0,0,1,.05-.17.13.13,0,0,1,.17,0c1.11,2,2.78,4.89,3.19,5.49.34-.65,1.59-4,2.35-6.09a.11.11,0,0,1,.15-.07.12.12,0,0,1,.08.16c-1.49,4.12-2.34,6.24-2.53,6.31Z"/><path class="cls-11" d="M152.26,70.3h-.06c-.17-.09-1.92-3.14-3.35-5.69a.11.11,0,0,1,0-.16.12.12,0,0,1,.17,0c1.12,2,2.79,4.9,3.19,5.5.35-.65,1.59-4,2.35-6.09a.13.13,0,0,1,.16-.07.11.11,0,0,1,.07.15c-1.48,4.12-2.33,6.25-2.52,6.32Z"/><path class="cls-15" d="M87.26,44.49s-3.57.75-2.79,5.61c.66,4.14-2.25,2.08-3.71,8.36-1.8,7.73,3.93,7.38,1.64,10.12-3.57,4.29-7.64,15.59,4.22,16.88,11,1.2,13-6.09,11.42-10.76s-5.8-6.45-3.92-9.25c1.66-2.47,3-7-.09-10.21s-2.89-1.77-3.29-5.9S89.28,44,87.26,44.49Z"/><path class="cls-11" d="M88.43,85.7a.12.12,0,0,1-.12-.13l-.53-36.23a.13.13,0,0,1,.12-.13.14.14,0,0,1,.13.13l.52,36.23a.13.13,0,0,1-.12.13Z"/><path class="cls-11" d="M88.05,61.19h0c-.07,0-.27,0-3.29-4.76a.12.12,0,0,1,0-.17.13.13,0,0,1,.17,0c1,1.6,2.67,4.14,3.07,4.59a38.13,38.13,0,0,0,2.47-5.18.14.14,0,0,1,.16-.07.12.12,0,0,1,.07.16,35.68,35.68,0,0,1-2.58,5.34A.14.14,0,0,1,88.05,61.19Z"/><path class="cls-11" d="M88.17,69.43h-.06c-.17-.09-1.92-3.14-3.35-5.68a.13.13,0,0,1,0-.17.12.12,0,0,1,.17,0c1.12,2,2.79,4.9,3.2,5.5.34-.65,1.58-4,2.34-6.09a.13.13,0,0,1,.16-.07.11.11,0,0,1,.07.15c-1.48,4.12-2.33,6.25-2.52,6.32Z"/><path class="cls-11" d="M88.33,78.67l-.07,0c-.17-.09-1.91-3.13-3.35-5.68a.12.12,0,0,1,0-.16.12.12,0,0,1,.17,0c1.11,2,2.78,4.9,3.19,5.5.34-.65,1.59-4,2.35-6.09a.12.12,0,0,1,.16-.08.14.14,0,0,1,.07.16c-1.49,4.12-2.34,6.25-2.53,6.32Z"/><path class="cls-16" d="M80.49,96.23A2.2,2.2,0,0,0,78.07,94a31.06,31.06,0,0,0-15.86,6.53c-8.25,6.45-3,20.64-12.13,15.68-7.59-4.1-17.61-.69-17.56,7.71,0,5.77-4.55,4.18-8.76,5.41a2.21,2.21,0,0,0,.59,4.34H77.78A2.21,2.21,0,0,0,80,131.49Z"/><path class="cls-16" d="M152.92,101.87a2.24,2.24,0,0,1,1.71-2.17c2.89-.66,9.1-1.17,15.78,4,8.26,6.45,3.24,17.42,12.39,12.46,7.59-4.1,17.61-.69,17.56,7.71,0,5.71,4.46,4.22,8.63,5.37a2.23,2.23,0,0,1-.6,4.38H155.15a2.23,2.23,0,0,1-2.23-2.23Z"/><rect class="cls-2" x="66.87" y="60.78" width="96.67" height="69.74" rx="15.24"/><rect class="cls-12" x="71.19" y="66.58" width="88.01" height="51.74"/><polygon class="cls-10" points="159.21 118.31 71.19 118.31 159.21 66.57 159.21 118.31"/><path class="cls-17" d="M56.69,124.11h117a0,0,0,0,1,0,0v0a9.72,9.72,0,0,1-9.72,9.72H66.41a9.72,9.72,0,0,1-9.72-9.72v0a0,0,0,0,1,0,0Z"/><path class="cls-2" d="M99.55,121.36a7.54,7.54,0,0,0,7.54,7.55h16.22a7.54,7.54,0,0,0,7.54-7.55Z"/><rect class="cls-13" x="56.31" y="121.33" width="117.79" height="2.78"/><text class="cls-18" transform="translate(86.43 100.17)">404</text><text class="cls-19" transform="translate(104.13 111.57)">Error</text><path class="cls-20" d="M160.4,83.45s-.39,6.7.35,7.2,2.67-.2,3,2.41.89,15.59.89,15.59L153,108.28s.1-16,.3-16.8,4.38-.64,4.36-1.16,0-5.48,0-5.48Z"/><path class="cls-21" d="M157.58,88.23s.18.39,1.25,0A3.28,3.28,0,0,0,160.27,87l.07-2.38-.6.52s-1,2.25-2.17,2.44Z"/><path class="cls-20" d="M160.56,84.29s1.12-.75,1.14-.06-1.3,1.37-1.54,1S160.56,84.29,160.56,84.29Z"/><path class="cls-22" d="M160.35,85h0a0,0,0,0,1,0,0c.35-.72.92-.55.92-.55s0,0,0,0a.05.05,0,0,1,0,0s-.5-.15-.82.5C160.38,84.94,160.37,85,160.35,85Z"/><path class="cls-22" d="M160.62,84.84s0,0,0,0a0,0,0,0,1,0,0,.49.49,0,0,0,.31-.22.22.22,0,0,0,0-.14,0,0,0,0,1,0-.06,0,0,0,0,1,.05,0,.2.2,0,0,1,0,.2c0,.12-.15.21-.35.28Z"/><path class="cls-20" d="M151.6,137.17s1.28-18.86,1.58-27.33h10.06s-.47,17.18-.59,27.57c0,0,3.14.52,1.66.75a13.4,13.4,0,0,1-3.11,0S158.51,116,158,113.61l-4.75,24.58c-1.13-.11-4.67.32-3.9-.11A14.93,14.93,0,0,1,151.6,137.17Z"/><path class="cls-8" d="M152.68,111s-.5,3.6-1.08,10l5.36.59.85-6.57,1,6.48,5.18-.21s.23-9.08-.25-10.27C163.73,111,154.53,110,152.68,111Z"/><path class="cls-23" d="M152.24,114.69s0,0,0,0a.05.05,0,0,1,0,0s2-.38,2.66-3.58c0,0,0,0,.05,0s0,0,0,0a5.23,5.23,0,0,1-1.62,3,2.43,2.43,0,0,1-1.1.59Z"/><path class="cls-20" d="M168.72,95.18s1.56,3.59,2.81,4c3.57,1.23,2.88-4,5.05-5.72s-.07,2.42-.27,3.24c-.86,3.43-2.92,8.5-8.5,4.07-2.95-2.34-2-2.26-2-2.26Z"/><path class="cls-20" d="M157.12,80.75s-3.52,6-.13,6.58c2.1.38,4.24-3.65,4-4.93S157.4,79.53,157.12,80.75Z"/><path class="cls-2" d="M160.75,90.65s.15,2.42-1.2,2.42-2.24-2.54-2.24-2.54-4,.25-4.05,1-.58,19.56-.58,19.56l12.37,0s-.1-17.85-.82-18.8S165.32,91.2,160.75,90.65Z"/><circle class="cls-10" cx="158.1" cy="83.54" r="0.2"/><circle class="cls-21" cx="158.43" cy="84.71" r="0.37"/><path class="cls-12" d="M158.29,83c-.06.18.19.06.42.14s.36.32.42.15a.41.41,0,0,0-.31-.47A.4.4,0,0,0,158.29,83Z"/><path class="cls-12" d="M156.39,82.35c-.06.17.19.06.42.14s.36.32.42.14a.46.46,0,0,0-.84-.28Z"/><circle class="cls-21" cx="156.16" cy="84.13" r="0.37"/><path class="cls-22" d="M156.75,84.37s0,0,0,0l0,0a3.58,3.58,0,0,1,.42-.91,0,0,0,0,1,0,0,0,0,0,0,1,0,.06c-.17.31-.35.66-.4.79a3.62,3.62,0,0,0,.45-.38h0a0,0,0,0,1,0,.06C156.9,84.32,156.79,84.37,156.75,84.37Z"/><circle class="cls-10" cx="156.54" cy="83.06" r="0.2"/><path class="cls-12" d="M155.38,85.39s.09-1.22.3-1.19-.16,1.07.25.74,1.13-1,1.49,0c.09.25.2,1,1.39.56a2.08,2.08,0,0,0,1.23-2c.1-.46-.19-.82.46-1.55s-3.67.53-3.45-1.39a2.49,2.49,0,0,1,3.45-1.4c2.17,1.16,2.36,2.81,1.9,2.63-.28-.11-.42-.4-.77-.39s.44,2-.58,2.63c-1.37.86-1.61,3.67-4.05,3.58C155.42,87.6,155.39,85.61,155.38,85.39Z"/><path class="cls-23" d="M156.64,85.52h0c-.15-.05-.21-.27-.19-.69a0,0,0,0,1,0,0h0a0,0,0,0,1,0,0c0,.49.07.59.13.61s.41-.26.54-.47a.06.06,0,0,1,.06,0,0,0,0,0,1,0,.06C157.18,85.07,156.88,85.52,156.64,85.52Z"/><path class="cls-15" d="M163.12,91.13s4,.7,5.54,5.8L167.14,100a20.56,20.56,0,0,1-3.34-3.4C162.7,95,163.12,91.13,163.12,91.13Z"/><path class="cls-15" d="M156.34,90.53s-.28,20.62-.55,21.07-3.61.28-3.61.28.67-19.34,1.1-20.4S156.34,90.53,156.34,90.53Z"/><path class="cls-15" d="M162.1,90.83s.16,20.44-.23,21.08,2.8.4,3.4,0c0,0-.49-20.14-.66-20.22A3,3,0,0,0,162.1,90.83Z"/><path class="cls-24" d="M183.6,82l-4.38,7.13-5.87-3.6,4.37-7.13a6.95,6.95,0,0,0-6.31,10.29l-6.5,10.6L155.28,115A6.94,6.94,0,0,0,149,125.31l4.37-7.13,5.87,3.6-4.37,7.13a6.94,6.94,0,0,0,6.31-10.29L168.91,106l8.38-13.66A6.95,6.95,0,0,0,183.6,82Z"/><path class="cls-10" d="M164.91,99.31,155.28,115A6.94,6.94,0,0,0,149,125.31l4.37-7.13,5.87,3.6-4.37,7.13a6.94,6.94,0,0,0,6.31-10.29L168.91,106C166.39,104.62,165.34,101.46,164.91,99.31Z"/><path class="cls-11" d="M154.93,119.27h-.07a.14.14,0,0,1,0-.17l20.44-32.37a.12.12,0,0,1,.17,0,.14.14,0,0,1,0,.17L155,119.22A.12.12,0,0,1,154.93,119.27Z"/><path class="cls-11" d="M156.73,120.38a.07.07,0,0,1-.06,0,.11.11,0,0,1,0-.16l20.05-32.61a.12.12,0,0,1,.17,0,.13.13,0,0,1,0,.17l-20,32.6A.11.11,0,0,1,156.73,120.38Z"/><path class="cls-20" d="M153.4,97.06s-3,2.25-2.31,4.43c.85,2.78,6.31,2.46,9.26,3.49,2.7,1,2.94,2.77,2.87,3s-1.88-1.19-3.26-1.79c-.93-.41-10.08.17-12.21-3.21-1.79-2.85,2.39-8,3.85-9.9A25.68,25.68,0,0,0,153.4,97.06Z"/><path class="cls-15" d="M155.38,96.54l-3.64,2.93a27.75,27.75,0,0,1-3.63-3.12c-.61-.85,4.72-5.82,6.15-5.58C155.29,90.94,155.38,96.54,155.38,96.54Z"/><path class="cls-10" d="M151.65,136.29h2s-.38,1.69-.37,1.9a18.47,18.47,0,0,1-4.21,0c-.66-.29,2.54-1,2.54-1Z"/><path class="cls-10" d="M162.7,136.29H161s.12,1.69.11,1.9a18.47,18.47,0,0,0,4.21,0c.66-.29-2.53-1-2.53-1Z"/><path class="cls-22" d="M163.22,108s0,0,0,0a8.94,8.94,0,0,0-2.23-2.1,0,0,0,0,1,0,0,0,0,0,0,1,.06,0,8.93,8.93,0,0,1,2.25,2.13,0,0,0,0,1,0,.06Z"/><path class="cls-22" d="M160.76,106.17s0,0,0,0a0,0,0,0,1,0-.06,6.52,6.52,0,0,0,.52-.7s0,0,.05,0a0,0,0,0,1,0,.05,6.15,6.15,0,0,1-.53.72Z"/><path class="cls-22" d="M163.14,107.44s0,0,0,0a5,5,0,0,0-1.94-1.78,0,0,0,0,1,0-.06,0,0,0,0,1,.05,0,5.11,5.11,0,0,1,2,1.83s0,0,0,.05Z"/><path class="cls-22" d="M176.16,95.78h0s0,0,0-.06a9.09,9.09,0,0,0,1.33-2.52,0,0,0,0,1,0,0h0a0,0,0,0,1,0,0,8.63,8.63,0,0,1-1.35,2.57Z"/><path class="cls-22" d="M176.49,96h0a3,3,0,0,0-.85-.33s0,0,0,0a0,0,0,0,1,.05,0,3.07,3.07,0,0,1,.9.35,0,0,0,0,1,0,.06Z"/><path class="cls-22" d="M175.86,95.62h0a0,0,0,0,1,0,0s.85-1.62,1.26-2.38c0,0,0,0,.06,0s0,0,0,0c-.4.75-1.25,2.36-1.25,2.37A.05.05,0,0,1,175.86,95.62Z"/><path class="cls-24" d="M157.19,81.27h0s0,0,0,0a3,3,0,0,1,1.34-1.81,3,3,0,0,1,2.58.09,0,0,0,0,1,0,.07,3,3,0,0,0-2.51-.08,2.82,2.82,0,0,0-1.3,1.75S157.21,81.27,157.19,81.27Z"/><path class="cls-24" d="M157.9,81.7h0a0,0,0,0,1,0-.06,3.82,3.82,0,0,1,1-1.16,2.75,2.75,0,0,1,3-.21,0,0,0,0,1,0,.06,0,0,0,0,1,0,0,2.62,2.62,0,0,0-2.9.2,3.43,3.43,0,0,0-1,1.13Z"/><path class="cls-24" d="M158.8,81.7h0s0,0,0-.06a2,2,0,0,1,2.68-.85,0,0,0,0,1,0,.06,0,0,0,0,1,0,0,1.91,1.91,0,0,0-2.57.83Z"/><path class="cls-22" d="M157.12,80.79a0,0,0,0,1,0,0,1.73,1.73,0,0,1,.42-1.37,1.88,1.88,0,0,1,1.3-.5,0,0,0,0,1,0,.08h0a1.8,1.8,0,0,0-1.23.48,1.66,1.66,0,0,0-.4,1.31,0,0,0,0,1,0,0Z"/><path class="cls-24" d="M160.84,83h-.09a.86.86,0,0,1-.52-.38s0,0,0-.06a0,0,0,0,1,.05,0,.84.84,0,0,0,.47.34.7.7,0,0,0,.56-.22,0,0,0,0,1,.06,0,0,0,0,0,1,0,0A.82.82,0,0,1,160.84,83Z"/><path class="cls-24" d="M160.87,83.64a.71.71,0,0,1-.32-.07,1.08,1.08,0,0,1-.48-.64s0,0,0-.05a.05.05,0,0,1,.05,0,1,1,0,0,0,.44.58.73.73,0,0,0,.6,0,0,0,0,0,1,.05,0,0,0,0,0,1,0,.06A1.12,1.12,0,0,1,160.87,83.64Z"/><path class="cls-15" d="M68.8,88.53s.43,1.68,1.62,2.06,1.61-.62,2.33,0a2.84,2.84,0,0,0,3.6.48c1.69-1,.78-1.15,1.7-.58s2.41-.55,2.31-1.53-1.28-2-1.57-4.34c-.24-2-1.16-4.15-3.26-3.86s-4,1-4.6,3.67S68.28,86.55,68.8,88.53Z"/><path class="cls-21" d="M74.22,93l3-.52a23.3,23.3,0,0,1-.07-5c.23-1.1-2.93-2.74-2.93-2.74Z"/><path class="cls-21" d="M77.21,82.33s2.51,4.69.16,6.22c-1.49,1-4.43-3.42-4.31-4.71S76.86,81.13,77.21,82.33Z"/><path class="cls-21" d="M74.13,85.85s-.95-.95-1.11-.28,1,1.6,1.33,1.23S74.13,85.85,74.13,85.85Z"/><path class="cls-15" d="M77.18,82s-1.79-.44-2.22,1.93a1.88,1.88,0,0,1-2.72,1.57S71.12,80.93,77.18,82Z"/><circle class="cls-10" cx="75.4" cy="85.68" r="0.2"/><path class="cls-25" d="M77,88.7a3,3,0,0,1-2.56-1.33c-.23-.33,0,1.39.85,2.2a6.73,6.73,0,0,0,1.78,1.25A13.44,13.44,0,0,1,77,88.7Z"/><path class="cls-22" d="M74.14,86.56a0,0,0,0,1,0,0,.91.91,0,0,0-.34-.7.38.38,0,0,0-.33,0,0,0,0,0,1-.06,0,0,0,0,0,1,0-.05.45.45,0,0,1,.41,0,.94.94,0,0,1,.38.76s0,0,0,0Z"/><circle class="cls-25" cx="75.64" cy="86.57" r="0.37"/><path class="cls-22" d="M74,86.37s0,0,0,0c-.26-.44-.21-.57-.19-.59s0,0,.06,0,0,0,0,0,0,.13.19.5a0,0,0,0,1,0,.06Z"/><path class="cls-15" d="M75.54,85c.06.17-.19.06-.42.14s-.36.32-.42.15a.41.41,0,0,1,.31-.47A.4.4,0,0,1,75.54,85Z"/><path class="cls-15" d="M77.52,84.26c.06.18-.19.06-.42.14s-.36.33-.42.15a.41.41,0,0,1,.31-.47A.4.4,0,0,1,77.52,84.26Z"/><circle class="cls-25" cx="77.9" cy="85.98" r="0.37"/><path class="cls-22" d="M77.3,86.23s-.16,0-.55-.42c0,0,0,0,0-.06a0,0,0,0,1,0,0c.17.15.36.32.45.38a8.27,8.27,0,0,0-.4-.8,0,0,0,0,1,0-.06,0,0,0,0,1,0,0,3.24,3.24,0,0,1,.42.91l0,0Z"/><path class="cls-22" d="M77.12,87.15c-.24,0-.46-.46-.48-.52s0,0,0,0a0,0,0,0,1,0,0c.09.19.28.49.42.47s.18-.1.25-.58c0,0,0,0,.05,0s0,0,0,0c-.06.41-.16.62-.31.65Z"/><circle class="cls-10" cx="77.34" cy="85.1" r="0.2"/><path class="cls-25" d="M73.43,85.63a3.1,3.1,0,0,1-.42,0,0,0,0,0,1,0,0s0,0,0,0c1.61.19,1.94-.71,2.29-1.67a7.23,7.23,0,0,1,.36-.85c.63-1.14,1.36-1.13,1.39-1.12a0,0,0,0,1,0,.08h0s-.71,0-1.3,1.08a4.83,4.83,0,0,0-.36.84C75.07,84.75,74.74,85.63,73.43,85.63Z"/><path class="cls-8" d="M72.06,123.87s9,1.75,10,.48S80.82,109,77.22,110,72.06,123.87,72.06,123.87Z"/><path class="cls-21" d="M73.43,92.52a4.7,4.7,0,0,0-3.69,2.11c-1.69,2.23-2.34,7.44-4.41,7.22-1.1-.11-1-8.89-1.26-11.26-.29-2.87-2.4-4-1.72-2.28,1.46,3.64-.53,11.18.2,14.82s5.65,3.2,8-1.77A34.84,34.84,0,0,0,73.43,92.52Z"/><path class="cls-21" d="M73.67,136.74s-1.08-19.87-.82-29h8.66s.4,20.31-.42,29.34c0,0,3.39.68,2.12.93a14.66,14.66,0,0,1-3.76-.16s-2-23.54-2.43-26.06l-2,26.06c.06-.09-1,.11-4.29.27C70,138.2,73.67,136.74,73.67,136.74Z"/><path class="cls-10" d="M71.39,108.6s1.43,25.28,1.43,25.85h2.93L77,112.79l1.44,21.66,3.21-.27s.72-23.88.37-26.17C82.06,108,73.26,108.53,71.39,108.6Z"/><path class="cls-21" d="M82.06,108s-1.57-8.85-1.53-14.1-9.14-1.35-9.14-1.35.86,12.61,0,16C71.39,108.54,77.5,109.26,82.06,108Z"/><path class="cls-10" d="M79.41,137.47l3.28.33v-.31s1.39.45,1.53.72-4.79-.08-4.79-.08Z"/><path class="cls-10" d="M75.06,137.47l-3.28.33v-.31s-1.39.45-1.53.72,4.79-.08,4.79-.08Z"/><path class="cls-2" d="M71.78,96.7s5.66-2.22,8.28-.83c1.48.79,2,12.51,2,12.51s-7.66,1-10.67.16C71.39,108.54,71.54,98.86,71.78,96.7Z"/><path class="cls-8" d="M73.26,119.65S73.4,92.6,73,92.09s-3.17.37-4.27,2.87c-1.36,3.09-2.27,5.64-2.27,5.64l4.22,1.75s-1.2,23.14-.58,22.78S73.06,125.79,73.26,119.65Z"/><path class="cls-8" d="M78.48,91.29s1.51,24.58,1.69,26.32c.47,4.4,2,8,2.71,7.06s-1.15-27.43-1.41-27.56.14,1.2.14,1.2a25.82,25.82,0,0,1,2.85,2.19s2.06-2.85,1.28-3.72C84.3,95.17,80.39,90.49,78.48,91.29Z"/><path class="cls-25" d="M69.82,89a.68.68,0,0,1-.41-.12,0,0,0,0,1,0-.05s0,0,.06,0a.67.67,0,0,0,.55.07c.33-.08.82-.42,1.34-1.57a9.92,9.92,0,0,0,.56-2c.43-2,.87-4,3.85-4a0,0,0,0,1,0,0,0,0,0,0,1,0,0c-2.92,0-3.35,2-3.77,4a9.75,9.75,0,0,1-.57,2C71,88.29,70.53,88.84,70,89A.82.82,0,0,1,69.82,89Z"/><path class="cls-25" d="M71.77,89.61s0,0,0,0,0,0,0,0A1.86,1.86,0,0,0,72.6,89a2.87,2.87,0,0,0,.57-2.43s0,0,0,0a.07.07,0,0,1,0,0,2.88,2.88,0,0,1-.59,2.5,2,2,0,0,1-.88.54Z"/><path class="cls-25" d="M73.26,84.9s0,0,0,0c-.28-1.75,2.28-3.09,2.31-3.1s0,0,0,0,0,0,0,.06-2.54,1.33-2.27,3a0,0,0,0,1,0,0Z"/><path class="cls-25" d="M78.48,89.61h0s0,0,0-.06c1.14-1.54.27-2.43.23-2.47s0,0,0-.06a.06.06,0,0,1,.06,0s1,1-.22,2.58Z"/><path class="cls-21" d="M80.36,92.46s5.87,3.25,7.81,8c2.12,5.23-5.37,6.44-5.76,10.42-.25,2.54-1.41-1.27-.35-2.92,1.37-2.15,4.93-4.23,3.36-6.47a26,26,0,0,0-5.36-5.66A3.59,3.59,0,0,1,80.36,92.46Z"/><path class="cls-8" d="M84.46,100.5s2.67-2.67,2.28-3.31c-1.08-1.75-4.54-5.82-7.68-6,0,0-.93,4.55,2.55,7.11A35.56,35.56,0,0,0,84.46,100.5Z"/><path class="cls-23" d="M75.87,112.8a0,0,0,0,1,0-.08l2.6,0h0a0,0,0,0,1,0,.08l-2.61,0Z"/><path class="cls-23" d="M77,112.83a0,0,0,0,1,0,0l-.27-3.91s0,0,0,0a0,0,0,0,1,0,0l.27,3.92a0,0,0,0,1,0,0Z"/><path class="cls-23" d="M73.28,109.27a0,0,0,0,1,0-.08c.06,0,5.78-.11,6.36-.35a0,0,0,0,1,.06,0,0,0,0,0,1,0,0,59.64,59.64,0,0,1-6.4.36Z"/><path class="cls-23" d="M77,111.87h0a0,0,0,0,1,0-.05s0,0,0,0,.82,0,.94-3c0,0,0,0,0,0s0,0,0,0C77.92,111.8,77.08,111.87,77,111.87Z"/><path class="cls-22" d="M82.06,111.73a0,0,0,0,1,0,0,5.57,5.57,0,0,1,.53-2.67h0s0,0,0,.06a5.59,5.59,0,0,0-.51,2.61,0,0,0,0,1,0,0Z"/><path class="cls-22" d="M81.73,111a0,0,0,0,1,0,0,7.19,7.19,0,0,1,.54-2.24,0,0,0,0,1,.06,0s0,0,0,.05a7.28,7.28,0,0,0-.54,2.2.07.07,0,0,1,0,.05Z"/><path class="cls-22" d="M82.82,109.09h0c-.48-.08-.79-.67-.8-.69a0,0,0,0,1,0-.06,0,0,0,0,1,0,0s.3.58.74.65a0,0,0,0,1,0,0S82.84,109.09,82.82,109.09Z"/><path class="cls-22" d="M63,90.19s0,0,0,0a4.84,4.84,0,0,0-.82-2.32,0,0,0,0,1,.07,0,5.14,5.14,0,0,1,.84,2.36.07.07,0,0,1,0,0Z"/><path class="cls-22" d="M63.41,90s0,0,0,0a13.32,13.32,0,0,0-.78-2.37,0,0,0,1,1,.08,0A13.58,13.58,0,0,1,63.45,90s0,0,0,0Z"/><path class="cls-22" d="M62.81,90.33a.05.05,0,0,1,0,0,.06.06,0,0,1,0-.06,2.42,2.42,0,0,1,.83-.33,0,0,0,0,1,0,0,0,0,0,0,1,0,0,2.35,2.35,0,0,0-.79.32Z"/><polygon class="cls-2" points="101.22 117.62 100.83 117.62 99.56 117.62 99.17 117.62 94.18 135.15 99.56 135.15 100.83 135.15 106.21 135.15 101.22 117.62"/><g class="cls-26"><rect class="cls-15" x="93.68" y="118.79" width="13.55" height="3.02"/><rect class="cls-15" x="93.68" y="124.62" width="13.55" height="3.02"/><rect class="cls-15" x="93.68" y="130.34" width="13.55" height="3.02"/><rect class="cls-27" x="93.26" y="134.14" width="13.59" height="1.01"/></g><rect class="cls-15" x="92.53" y="135.15" width="15.31" height="2.95"/><polygon class="cls-2" points="126.29 135.71 126.41 136.08 126.8 137.29 126.92 137.66 145.13 137.09 143.49 131.97 143.11 130.75 141.47 125.63 126.29 135.71"/><g class="cls-28"><rect class="cls-15" x="122.31" y="134.12" width="13.55" height="3.02" transform="matrix(-0.3, -0.95, 0.95, -0.3, 39.09, 299.82)"/><rect class="cls-15" x="127.86" y="132.35" width="13.55" height="3.02" transform="translate(48.02 302.8) rotate(-107.69)"/><rect class="cls-15" x="133.3" y="130.61" width="13.55" height="3.02" transform="matrix(-0.3, -0.95, 0.95, -0.3, 56.77, 305.72)"/><rect class="cls-27" x="136.06" y="131.14" width="13.59" height="1.01" transform="translate(60.85 307.75) rotate(-107.69)"/></g><rect class="cls-15" x="137.05" y="129.45" width="15.31" height="2.95" transform="translate(63.95 308.58) rotate(-107.69)"/><rect class="cls-10" x="37.6" y="117.61" width="1.93" height="20.33"/><rect class="cls-10" x="60.47" y="117.61" width="1.93" height="20.33"/><rect class="cls-12" x="36" y="120.31" width="27.99" height="8.89"/><rect class="cls-2" x="36" y="120.31" width="27.99" height="8.89"/><g class="cls-29"><rect class="cls-15" x="30.19" y="121.04" width="19.01" height="2.83" transform="translate(-87.78 104.56) rotate(-64.05)"/><rect class="cls-15" x="36.15" y="121.01" width="19.01" height="2.83" transform="translate(-84.4 109.9) rotate(-64.05)"/><rect class="cls-15" x="42.19" y="120.97" width="19.01" height="2.83" transform="translate(-80.97 115.31) rotate(-64.05)"/><rect class="cls-15" x="48.15" y="120.94" width="19.01" height="2.83" transform="translate(-77.59 120.65) rotate(-64.05)"/><rect class="cls-15" x="53.7" y="120.94" width="19.01" height="2.83" transform="translate(-74.47 125.64) rotate(-64.05)"/></g><rect class="cls-10" x="168.01" y="117.61" width="1.93" height="20.33"/><rect class="cls-10" x="190.88" y="117.61" width="1.93" height="20.33"/><rect class="cls-12" x="166.41" y="120.31" width="27.99" height="8.89"/><rect class="cls-2" x="166.41" y="120.31" width="27.99" height="8.89"/><g class="cls-30"><rect class="cls-15" x="160.6" y="121.04" width="19.01" height="2.83" transform="translate(-14.45 221.82) rotate(-64.05)"/><rect class="cls-15" x="166.56" y="121.01" width="19.01" height="2.83" transform="translate(-11.07 227.16) rotate(-64.05)"/><rect class="cls-15" x="172.6" y="120.97" width="19.01" height="2.83" transform="translate(-7.64 232.57) rotate(-64.05)"/><rect class="cls-15" x="178.56" y="120.94" width="19.01" height="2.83" transform="translate(-4.26 237.91) rotate(-64.05)"/><rect class="cls-15" x="184.11" y="120.94" width="19.01" height="2.83" transform="translate(-1.14 242.89) rotate(-64.05)"/></g><path class="cls-15" d="M155.72,69.6a8.14,8.14,0,1,0-8.14,8.13,8,8,0,0,0,3.28-.69,21.22,21.22,0,0,0,3.2,1.85,26,26,0,0,0-1.53-2.83A8.13,8.13,0,0,0,155.72,69.6Z"/><path class="cls-2" d="M152.55,68.35h-1a4,4,0,0,0-.58-1.51l.62-.62a.78.78,0,0,0,0-1.11.79.79,0,0,0-1.12,0l-.59.59a3.94,3.94,0,0,0-1.54-.66v-.82a.79.79,0,1,0-1.58,0V65a4,4,0,0,0-1.5.63l-.56-.56a.79.79,0,0,0-1.12,0,.78.78,0,0,0,0,1.11l.58.58a4,4,0,0,0-.61,1.55h-.85a.79.79,0,1,0,0,1.58h.9a3.93,3.93,0,0,0,.64,1.41l-.73.73a.78.78,0,0,0,0,1.11.79.79,0,0,0,.56.24.77.77,0,0,0,.56-.24l.75-.75a4,4,0,0,0,1.38.56v1.08a.79.79,0,1,0,1.58,0V73a3.87,3.87,0,0,0,1.42-.58l.78.77a.77.77,0,0,0,.56.24.79.79,0,0,0,.56-.24.78.78,0,0,0,0-1.11l-.77-.77a3.86,3.86,0,0,0,.61-1.37h1a.79.79,0,1,0,0-1.58Zm-4.92,3a2.19,2.19,0,1,1,2.18-2.19A2.19,2.19,0,0,1,147.63,71.33Z"/><path class="cls-5" d="M179.24,37.79c-.46,11,5.17,21,22.2,24s6.58-9.69-1.72-14.87S179.71,26.8,179.24,37.79Z"/><path class="cls-4" d="M183,38.66c.1-2.22.65-3.38,1.54-3.78-3-1.75-5.05-1.6-5.25,2.91-.46,10.82,5,20.65,21.37,23.81C187.11,57.75,182.53,48.62,183,38.66Z"/></g></g></svg>